<mxfile host="Electron" agent="Mozilla/5.0 (Windows NT 10.0; Win64; x64) AppleWebKit/537.36 (KHTML, like Gecko) draw.io/24.7.5 Chrome/126.0.6478.183 Electron/31.3.0 Safari/537.36" version="24.7.5" pages="3">
  <diagram id="vDuuYtFArcM1-T-nutIg" name="Dockerfile">
    <mxGraphModel dx="1960" dy="480" grid="1" gridSize="10" guides="1" tooltips="1" connect="1" arrows="1" fold="1" page="1" pageScale="1" pageWidth="850" pageHeight="1100" math="0" shadow="0">
      <root>
        <mxCell id="0" />
        <mxCell id="1" parent="0" />
        <mxCell id="_PNwVdRlW1XByu91C9ya-1" value="&lt;font style=&quot;font-size: 18px;&quot;&gt;&lt;b&gt;FROM &lt;/b&gt;node:16-alpine&lt;/font&gt;" style="rounded=0;whiteSpace=wrap;html=1;fillColor=#dae8fc;strokeColor=#6c8ebf;" vertex="1" parent="1">
          <mxGeometry x="-640" y="130" width="220" height="60" as="geometry" />
        </mxCell>
        <mxCell id="_PNwVdRlW1XByu91C9ya-2" value="&lt;font style=&quot;font-size: 18px;&quot;&gt;&lt;b&gt;WORKDIR &lt;/b&gt;/usr/src/app&lt;/font&gt;" style="rounded=0;whiteSpace=wrap;html=1;fillColor=#dae8fc;strokeColor=#6c8ebf;" vertex="1" parent="1">
          <mxGeometry x="-640" y="190" width="220" height="60" as="geometry" />
        </mxCell>
        <mxCell id="_PNwVdRlW1XByu91C9ya-3" value="&lt;font style=&quot;font-size: 18px;&quot;&gt;&lt;b&gt;COPY &lt;/b&gt;app.js .&lt;/font&gt;" style="rounded=0;whiteSpace=wrap;html=1;fillColor=#dae8fc;strokeColor=#6c8ebf;" vertex="1" parent="1">
          <mxGeometry x="-640" y="250" width="220" height="60" as="geometry" />
        </mxCell>
        <mxCell id="_PNwVdRlW1XByu91C9ya-4" value="&lt;font style=&quot;font-size: 18px;&quot;&gt;Use &lt;b&gt;node:16-alpine &lt;/b&gt;image, it&amp;nbsp;includes everything needed to run a Node.js app.&lt;/font&gt;" style="rounded=0;whiteSpace=wrap;html=1;" vertex="1" parent="1">
          <mxGeometry x="-420" y="130" width="720" height="60" as="geometry" />
        </mxCell>
        <mxCell id="_PNwVdRlW1XByu91C9ya-5" value="&lt;font style=&quot;font-size: 18px;&quot;&gt;Set the folder inside the container to &lt;code&gt;&lt;b&gt;/usr/src/app&lt;/b&gt;&lt;/code&gt; where the app files will go&lt;/font&gt;" style="rounded=0;whiteSpace=wrap;html=1;" vertex="1" parent="1">
          <mxGeometry x="-420" y="190" width="720" height="60" as="geometry" />
        </mxCell>
        <mxCell id="_PNwVdRlW1XByu91C9ya-6" value="&lt;font style=&quot;font-size: 18px;&quot;&gt;&lt;b&gt;EXPOSE &lt;/b&gt;3000&lt;/font&gt;" style="rounded=0;whiteSpace=wrap;html=1;fillColor=#dae8fc;strokeColor=#6c8ebf;" vertex="1" parent="1">
          <mxGeometry x="-640" y="310" width="220" height="60" as="geometry" />
        </mxCell>
        <mxCell id="_PNwVdRlW1XByu91C9ya-7" value="&lt;code style=&quot;&quot;&gt;&lt;font style=&quot;font-size: 18px;&quot;&gt;&lt;b&gt;CMD [&quot;node&quot;, &quot;app.js&quot;]&lt;/b&gt;&lt;/font&gt;&lt;/code&gt;" style="rounded=0;whiteSpace=wrap;html=1;fillColor=#dae8fc;strokeColor=#6c8ebf;" vertex="1" parent="1">
          <mxGeometry x="-640" y="370" width="220" height="60" as="geometry" />
        </mxCell>
        <mxCell id="_PNwVdRlW1XByu91C9ya-8" value="&lt;font style=&quot;font-size: 18px;&quot;&gt;Copy the &lt;code&gt;app.js&lt;/code&gt; file from our computer into  into the &lt;b&gt;current folder&lt;/b&gt; of container&lt;/font&gt;" style="rounded=0;whiteSpace=wrap;html=1;" vertex="1" parent="1">
          <mxGeometry x="-420" y="250" width="720" height="60" as="geometry" />
        </mxCell>
        <mxCell id="_PNwVdRlW1XByu91C9ya-9" value="&lt;font style=&quot;font-size: 18px;&quot;&gt;Opens the container&#39;s port &lt;b&gt;3000 &lt;/b&gt;for external access&lt;/font&gt;" style="rounded=0;whiteSpace=wrap;html=1;" vertex="1" parent="1">
          <mxGeometry x="-420" y="310" width="720" height="60" as="geometry" />
        </mxCell>
        <mxCell id="_PNwVdRlW1XByu91C9ya-10" value="&lt;font style=&quot;font-size: 18px;&quot;&gt;Run the app by executing &lt;code&gt;node app.js&lt;/code&gt; when the container starts.&lt;/font&gt;" style="rounded=0;whiteSpace=wrap;html=1;" vertex="1" parent="1">
          <mxGeometry x="-420" y="370" width="720" height="60" as="geometry" />
        </mxCell>
      </root>
    </mxGraphModel>
  </diagram>
  <diagram name="Notes" id="L1Fa72ZnWO6swyIvvV44">
    <mxGraphModel dx="1120" dy="1642" grid="1" gridSize="10" guides="1" tooltips="1" connect="1" arrows="1" fold="1" page="1" pageScale="1" pageWidth="850" pageHeight="1100" math="0" shadow="0">
      <root>
        <mxCell id="0" />
        <mxCell id="1" parent="0" />
        <mxCell id="QXSe60yNYrY3teM20rkA-1" value="&lt;font style=&quot;font-size: 18px;&quot;&gt;Kubernetes is a system to deploy containerized apps&lt;/font&gt;" style="rounded=0;whiteSpace=wrap;html=1;" parent="1" vertex="1">
          <mxGeometry x="75" y="-920" width="700" height="60" as="geometry" />
        </mxCell>
        <mxCell id="QXSe60yNYrY3teM20rkA-2" value="&lt;font style=&quot;font-size: 18px;&quot;&gt;Kubernetes didn&#39;t build our images - it expects to be built already&lt;/font&gt;" style="rounded=0;whiteSpace=wrap;html=1;" parent="1" vertex="1">
          <mxGeometry x="75" y="-840" width="700" height="60" as="geometry" />
        </mxCell>
      </root>
    </mxGraphModel>
  </diagram>
  <diagram id="nwL2jMqfMbSOs8m-4h4H" name="Page-3">
    <mxGraphModel dx="880" dy="542" grid="1" gridSize="10" guides="1" tooltips="1" connect="1" arrows="1" fold="1" page="1" pageScale="1" pageWidth="850" pageHeight="1100" math="0" shadow="0">
      <root>
        <mxCell id="0" />
        <mxCell id="1" parent="0" />
        <mxCell id="i3A0TBzJhCf2PZKFL-Tv-1" value="" style="shape=table;startSize=0;container=1;collapsible=0;childLayout=tableLayout;fontSize=16;" vertex="1" parent="1">
          <mxGeometry x="120" y="200" width="540" height="40" as="geometry" />
        </mxCell>
        <mxCell id="i3A0TBzJhCf2PZKFL-Tv-2" value="" style="shape=tableRow;horizontal=0;startSize=0;swimlaneHead=0;swimlaneBody=0;strokeColor=inherit;top=0;left=0;bottom=0;right=0;collapsible=0;dropTarget=0;fillColor=none;points=[[0,0.5],[1,0.5]];portConstraint=eastwest;fontSize=16;" vertex="1" parent="i3A0TBzJhCf2PZKFL-Tv-1">
          <mxGeometry width="540" height="40" as="geometry" />
        </mxCell>
        <mxCell id="i3A0TBzJhCf2PZKFL-Tv-3" value="docker" style="shape=partialRectangle;html=1;whiteSpace=wrap;connectable=0;strokeColor=inherit;overflow=hidden;fillColor=none;top=0;left=0;bottom=0;right=0;pointerEvents=1;fontSize=16;" vertex="1" parent="i3A0TBzJhCf2PZKFL-Tv-2">
          <mxGeometry width="80" height="40" as="geometry">
            <mxRectangle width="80" height="40" as="alternateBounds" />
          </mxGeometry>
        </mxCell>
        <mxCell id="i3A0TBzJhCf2PZKFL-Tv-4" value="tag" style="shape=partialRectangle;html=1;whiteSpace=wrap;connectable=0;strokeColor=inherit;overflow=hidden;fillColor=none;top=0;left=0;bottom=0;right=0;pointerEvents=1;fontSize=16;" vertex="1" parent="i3A0TBzJhCf2PZKFL-Tv-2">
          <mxGeometry x="80" width="80" height="40" as="geometry">
            <mxRectangle width="80" height="40" as="alternateBounds" />
          </mxGeometry>
        </mxCell>
        <mxCell id="i3A0TBzJhCf2PZKFL-Tv-5" value="&amp;lt;image id&amp;gt;" style="shape=partialRectangle;html=1;whiteSpace=wrap;connectable=0;strokeColor=inherit;overflow=hidden;fillColor=none;top=0;left=0;bottom=0;right=0;pointerEvents=1;fontSize=16;" vertex="1" parent="i3A0TBzJhCf2PZKFL-Tv-2">
          <mxGeometry x="160" width="120" height="40" as="geometry">
            <mxRectangle width="120" height="40" as="alternateBounds" />
          </mxGeometry>
        </mxCell>
        <mxCell id="i3A0TBzJhCf2PZKFL-Tv-14" value="&amp;lt;registry&amp;gt;/&amp;lt;repo name&amp;gt;" style="shape=partialRectangle;html=1;whiteSpace=wrap;connectable=0;strokeColor=inherit;overflow=hidden;fillColor=none;top=0;left=0;bottom=0;right=0;pointerEvents=1;fontSize=16;" vertex="1" parent="i3A0TBzJhCf2PZKFL-Tv-2">
          <mxGeometry x="280" width="260" height="40" as="geometry">
            <mxRectangle width="260" height="40" as="alternateBounds" />
          </mxGeometry>
        </mxCell>
        <mxCell id="i3A0TBzJhCf2PZKFL-Tv-26" value="" style="shape=table;startSize=0;container=1;collapsible=0;childLayout=tableLayout;fontSize=16;" vertex="1" parent="1">
          <mxGeometry x="180" y="330" width="420" height="40" as="geometry" />
        </mxCell>
        <mxCell id="i3A0TBzJhCf2PZKFL-Tv-27" value="" style="shape=tableRow;horizontal=0;startSize=0;swimlaneHead=0;swimlaneBody=0;strokeColor=inherit;top=0;left=0;bottom=0;right=0;collapsible=0;dropTarget=0;fillColor=none;points=[[0,0.5],[1,0.5]];portConstraint=eastwest;fontSize=16;" vertex="1" parent="i3A0TBzJhCf2PZKFL-Tv-26">
          <mxGeometry width="420" height="40" as="geometry" />
        </mxCell>
        <mxCell id="i3A0TBzJhCf2PZKFL-Tv-28" value="docker" style="shape=partialRectangle;html=1;whiteSpace=wrap;connectable=0;strokeColor=inherit;overflow=hidden;fillColor=none;top=0;left=0;bottom=0;right=0;pointerEvents=1;fontSize=16;" vertex="1" parent="i3A0TBzJhCf2PZKFL-Tv-27">
          <mxGeometry width="80" height="40" as="geometry">
            <mxRectangle width="80" height="40" as="alternateBounds" />
          </mxGeometry>
        </mxCell>
        <mxCell id="i3A0TBzJhCf2PZKFL-Tv-29" value="push" style="shape=partialRectangle;html=1;whiteSpace=wrap;connectable=0;strokeColor=inherit;overflow=hidden;fillColor=none;top=0;left=0;bottom=0;right=0;pointerEvents=1;fontSize=16;" vertex="1" parent="i3A0TBzJhCf2PZKFL-Tv-27">
          <mxGeometry x="80" width="80" height="40" as="geometry">
            <mxRectangle width="80" height="40" as="alternateBounds" />
          </mxGeometry>
        </mxCell>
        <mxCell id="i3A0TBzJhCf2PZKFL-Tv-31" value="&amp;lt;registry&amp;gt;/&amp;lt;repo name&amp;gt;" style="shape=partialRectangle;html=1;whiteSpace=wrap;connectable=0;strokeColor=inherit;overflow=hidden;fillColor=none;top=0;left=0;bottom=0;right=0;pointerEvents=1;fontSize=16;" vertex="1" parent="i3A0TBzJhCf2PZKFL-Tv-27">
          <mxGeometry x="160" width="260" height="40" as="geometry">
            <mxRectangle width="260" height="40" as="alternateBounds" />
          </mxGeometry>
        </mxCell>
      </root>
    </mxGraphModel>
  </diagram>
</mxfile>
